<?xml version="1.0" encoding="utf-8"?>
<!-- Generator: Adobe Illustrator 25.2.1, SVG Export Plug-In . SVG Version: 6.00 Build 0)  -->
<svg version="1.1" id="Layer_1" xmlns="http://www.w3.org/2000/svg" xmlns:xlink="http://www.w3.org/1999/xlink" x="0px" y="0px"
	 viewBox="0 0 118.6 128.8" style="enable-background:new 0 0 118.6 128.8;" xml:space="preserve">
<style type="text/css">
	.st0{fill:#BD202F;}
</style>
<g>
	<g>
		<path class="st0" d="M117.2,57.4h-7.6c-0.2-0.6-0.4-1.1-0.5-1.4c-3.5-7-8.8-11.5-16.7-12.4c-5.8-0.7-10.7,1.6-14.8,5.5
			c-2.3,2.2-4.1,4.9-5.9,7.6c-1.4,2-3,2.6-5.2,1.7c-1.9-0.8-2.5-3.1-1.4-5.2c4.4-8.3,13.9-17.9,27.3-17.1
			c10.7,0.6,21.1,8.9,24.5,19.6C117,55.9,117.1,56.6,117.2,57.4z"/>
	</g>
	<g>
		<g>
			<path class="st0" d="M109.6,72.8c-0.2,0.2-0.5,0.6-0.7,1c-6.7,12.8-22.4,15.6-33.3,6C70.3,75.1,66.8,69,63.2,63
				c-3.3-5.5-6.6-11.1-10.8-16c-7.9-9.2-18.1-12.8-30.1-10.1C10.5,39.7,2,50.4,1.4,62.7C0.8,75.2,8.8,87.1,20.5,91.3
				c11,3.9,25.3-0.3,32-9.7c0.7-0.9,1.2-2.2,1.2-3.3c0.1-4.2,0.1-8.5,0.1-12.7c0-2.5-1.3-3.9-3.7-3.9c-7.1-0.1-14.2-0.1-21.3,0
				c-2.4,0-4,2.2-3.5,4.3c0.5,2.1,2,2.9,4.1,2.9c4.8,0,9.6,0,14.4,0c0.8,0,2,0.2,2.4,0.8c1.1,1.6,0,7.9-1.4,9.3
				c-6.7,6.7-18.2,8.1-26,3.2c-8.3-5.3-12.1-16-9-25.2c5-14.5,23-18.5,34.9-7.6c5.1,4.7,8.5,10.6,11.9,16.5
				c2.6,4.6,5.4,9.3,8.6,13.5c7.4,9.5,16.8,14.5,29.3,12.9c10.1-1.3,19.9-9.6,22.4-19.7H109.6z"/>
		</g>
		<line class="st0" x1="117.1" y1="72.8" x2="109.6" y2="72.8"/>
	</g>
</g>
</svg>
